<svg width="161" height="44" viewBox="0 0 161 44" fill="none" xmlns="http://www.w3.org/2000/svg">
<path d="M0 4C0 1.79086 1.79086 0 4 0H157C159.209 0 161 1.79086 161 4V40C161 42.2091 159.209 44 157 44H4C1.79086 44 0 42.2091 0 40V4Z" fill="url(#paint0_linear_2234_9565)"/>
<path d="M44.2944 16.878V27H42.6354V20.462C42.6354 20.2007 42.6494 19.9183 42.6774 19.615L39.6184 25.362C39.4737 25.6373 39.2521 25.775 38.9534 25.775H38.6874C38.3887 25.775 38.1671 25.6373 38.0224 25.362L34.9284 19.594C34.9424 19.748 34.9541 19.8997 34.9634 20.049C34.9727 20.1983 34.9774 20.336 34.9774 20.462V27H33.3184V16.878H34.7394C34.8234 16.878 34.8957 16.8803 34.9564 16.885C35.0171 16.8897 35.0707 16.9013 35.1174 16.92C35.1687 16.9387 35.2131 16.969 35.2504 17.011C35.2924 17.053 35.3321 17.109 35.3694 17.179L38.4004 22.8C38.4797 22.9493 38.5521 23.1033 38.6174 23.262C38.6874 23.4207 38.7551 23.584 38.8204 23.752C38.8857 23.5793 38.9534 23.4137 39.0234 23.255C39.0934 23.0917 39.1681 22.9353 39.2474 22.786L42.2364 17.179C42.2737 17.109 42.3134 17.053 42.3554 17.011C42.3974 16.969 42.4417 16.9387 42.4884 16.92C42.5397 16.9013 42.5957 16.8897 42.6564 16.885C42.7171 16.8803 42.7894 16.878 42.8734 16.878H44.2944ZM49.739 19.706C50.271 19.706 50.754 19.7923 51.188 19.965C51.6267 20.1377 52 20.3827 52.308 20.7C52.6207 21.0173 52.861 21.4047 53.029 21.862C53.197 22.3193 53.281 22.8303 53.281 23.395C53.281 23.9643 53.197 24.4777 53.029 24.935C52.861 25.3923 52.6207 25.782 52.308 26.104C52 26.426 51.6267 26.6733 51.188 26.846C50.754 27.0187 50.271 27.105 49.739 27.105C49.2024 27.105 48.7147 27.0187 48.276 26.846C47.8374 26.6733 47.4617 26.426 47.149 26.104C46.841 25.782 46.6007 25.3923 46.428 24.935C46.26 24.4777 46.176 23.9643 46.176 23.395C46.176 22.8303 46.26 22.3193 46.428 21.862C46.6007 21.4047 46.841 21.0173 47.149 20.7C47.4617 20.3827 47.8374 20.1377 48.276 19.965C48.7147 19.7923 49.2024 19.706 49.739 19.706ZM49.739 25.775C50.3364 25.775 50.7774 25.5743 51.062 25.173C51.3514 24.7717 51.496 24.1837 51.496 23.409C51.496 22.6343 51.3514 22.044 51.062 21.638C50.7774 21.232 50.3364 21.029 49.739 21.029C49.1324 21.029 48.682 21.2343 48.388 21.645C48.0987 22.051 47.954 22.639 47.954 23.409C47.954 24.179 48.0987 24.767 48.388 25.173C48.682 25.5743 49.1324 25.775 49.739 25.775ZM56.7311 21.064C56.9551 20.6347 57.2211 20.2987 57.5291 20.056C57.8371 19.8087 58.2011 19.685 58.6211 19.685C58.9524 19.685 59.2184 19.7573 59.4191 19.902L59.3071 21.197C59.2838 21.281 59.2488 21.3417 59.2021 21.379C59.1601 21.4117 59.1018 21.428 59.0271 21.428C58.9571 21.428 58.8521 21.4163 58.7121 21.393C58.5768 21.3697 58.4438 21.358 58.3131 21.358C58.1218 21.358 57.9514 21.386 57.8021 21.442C57.6528 21.498 57.5174 21.5797 57.3961 21.687C57.2794 21.7897 57.1744 21.9157 57.0811 22.065C56.9924 22.2143 56.9084 22.3847 56.8291 22.576V27H55.1001V19.818H56.1151C56.2924 19.818 56.4161 19.8507 56.4861 19.916C56.5561 19.9767 56.6028 20.0887 56.6261 20.252L56.7311 21.064ZM65.2447 22.583C65.2447 22.359 65.212 22.149 65.1467 21.953C65.086 21.7523 64.9927 21.5773 64.8667 21.428C64.7407 21.2787 64.5797 21.162 64.3837 21.078C64.1923 20.9893 63.9683 20.945 63.7117 20.945C63.2123 20.945 62.818 21.0873 62.5287 21.372C62.244 21.6567 62.062 22.0603 61.9827 22.583H65.2447ZM61.9477 23.626C61.9757 23.9947 62.041 24.3143 62.1437 24.585C62.2463 24.851 62.3817 25.0727 62.5497 25.25C62.7177 25.4227 62.916 25.5533 63.1447 25.642C63.378 25.726 63.6347 25.768 63.9147 25.768C64.1947 25.768 64.435 25.7353 64.6357 25.67C64.841 25.6047 65.0183 25.5323 65.1677 25.453C65.3217 25.3737 65.4547 25.3013 65.5667 25.236C65.6833 25.1707 65.7953 25.138 65.9027 25.138C66.0473 25.138 66.1547 25.1917 66.2247 25.299L66.7217 25.929C66.5303 26.153 66.3157 26.342 66.0777 26.496C65.8397 26.6453 65.59 26.7667 65.3287 26.86C65.072 26.9487 64.8083 27.0117 64.5377 27.049C64.2717 27.0863 64.0127 27.105 63.7607 27.105C63.2613 27.105 62.797 27.0233 62.3677 26.86C61.9383 26.692 61.565 26.447 61.2477 26.125C60.9303 25.7983 60.6807 25.397 60.4987 24.921C60.3167 24.4403 60.2257 23.885 60.2257 23.255C60.2257 22.765 60.305 22.3053 60.4637 21.876C60.6223 21.442 60.8487 21.0663 61.1427 20.749C61.4413 20.427 61.803 20.1727 62.2277 19.986C62.657 19.7993 63.14 19.706 63.6767 19.706C64.1293 19.706 64.547 19.7783 64.9297 19.923C65.3123 20.0677 65.6413 20.28 65.9167 20.56C66.192 20.8353 66.4067 21.176 66.5607 21.582C66.7193 21.9833 66.7987 22.443 66.7987 22.961C66.7987 23.2223 66.7707 23.3997 66.7147 23.493C66.6587 23.5817 66.5513 23.626 66.3927 23.626H61.9477ZM76.2945 23.934C75.7952 23.9573 75.3752 24.0017 75.0345 24.067C74.6938 24.1277 74.4208 24.207 74.2155 24.305C74.0102 24.403 73.8632 24.5173 73.7745 24.648C73.6858 24.7787 73.6415 24.921 73.6415 25.075C73.6415 25.3783 73.7302 25.5953 73.9075 25.726C74.0895 25.8567 74.3252 25.922 74.6145 25.922C74.9692 25.922 75.2748 25.859 75.5315 25.733C75.7928 25.6023 76.0472 25.4063 76.2945 25.145V23.934ZM72.3325 20.819C73.1585 20.063 74.1525 19.685 75.3145 19.685C75.7345 19.685 76.1102 19.755 76.4415 19.895C76.7728 20.0303 77.0528 20.2217 77.2815 20.469C77.5102 20.7117 77.6828 21.0033 77.7995 21.344C77.9208 21.6847 77.9815 22.058 77.9815 22.464V27H77.1975C77.0342 27 76.9082 26.9767 76.8195 26.93C76.7308 26.8787 76.6608 26.7783 76.6095 26.629L76.4555 26.111C76.2735 26.2743 76.0962 26.419 75.9235 26.545C75.7508 26.6663 75.5712 26.769 75.3845 26.853C75.1978 26.937 74.9972 27 74.7825 27.042C74.5725 27.0887 74.3392 27.112 74.0825 27.112C73.7792 27.112 73.4992 27.0723 73.2425 26.993C72.9858 26.909 72.7642 26.7853 72.5775 26.622C72.3908 26.4587 72.2462 26.2557 72.1435 26.013C72.0408 25.7703 71.9895 25.488 71.9895 25.166C71.9895 24.984 72.0198 24.8043 72.0805 24.627C72.1412 24.445 72.2392 24.2723 72.3745 24.109C72.5145 23.9457 72.6942 23.7917 72.9135 23.647C73.1328 23.5023 73.4012 23.3763 73.7185 23.269C74.0405 23.1617 74.4138 23.0753 74.8385 23.01C75.2632 22.94 75.7485 22.898 76.2945 22.884V22.464C76.2945 21.9833 76.1918 21.6287 75.9865 21.4C75.7812 21.1667 75.4848 21.05 75.0975 21.05C74.8175 21.05 74.5842 21.0827 74.3975 21.148C74.2155 21.2133 74.0545 21.288 73.9145 21.372C73.7745 21.4513 73.6462 21.5237 73.5295 21.589C73.4175 21.6543 73.2915 21.687 73.1515 21.687C73.0302 21.687 72.9275 21.6567 72.8435 21.596C72.7595 21.5307 72.6918 21.456 72.6405 21.372L72.3325 20.819ZM81.8389 25.138C82.0349 25.376 82.2472 25.544 82.4759 25.642C82.7092 25.74 82.9542 25.789 83.2109 25.789C83.4769 25.789 83.7149 25.7423 83.9249 25.649C84.1395 25.551 84.3215 25.4017 84.4709 25.201C84.6202 24.9957 84.7345 24.7367 84.8139 24.424C84.8932 24.1067 84.9329 23.7287 84.9329 23.29C84.9329 22.5013 84.8022 21.932 84.5409 21.582C84.2795 21.2273 83.9039 21.05 83.4139 21.05C83.0825 21.05 82.7932 21.127 82.5459 21.281C82.2985 21.4303 82.0629 21.6427 81.8389 21.918V25.138ZM81.8389 20.7C82.1282 20.3967 82.4479 20.1563 82.7979 19.979C83.1525 19.797 83.5562 19.706 84.0089 19.706C84.4242 19.706 84.7975 19.7877 85.1289 19.951C85.4649 20.1143 85.7495 20.35 85.9829 20.658C86.2209 20.9613 86.4029 21.33 86.5289 21.764C86.6549 22.198 86.7179 22.6857 86.7179 23.227C86.7179 23.8103 86.6455 24.34 86.5009 24.816C86.3562 25.292 86.1485 25.7003 85.8779 26.041C85.6119 26.377 85.2899 26.6383 84.9119 26.825C84.5339 27.0117 84.1139 27.105 83.6519 27.105C83.4279 27.105 83.2249 27.0817 83.0429 27.035C82.8609 26.993 82.6929 26.9323 82.5389 26.853C82.3849 26.7737 82.2425 26.678 82.1119 26.566C81.9859 26.4493 81.8645 26.321 81.7479 26.181L81.6709 26.664C81.6429 26.7853 81.5939 26.8717 81.5239 26.923C81.4585 26.9743 81.3675 27 81.2509 27H80.1099V16.598H81.8389V20.7ZM91.7312 19.706C92.2632 19.706 92.7462 19.7923 93.1802 19.965C93.6189 20.1377 93.9922 20.3827 94.3002 20.7C94.6129 21.0173 94.8532 21.4047 95.0212 21.862C95.1892 22.3193 95.2732 22.8303 95.2732 23.395C95.2732 23.9643 95.1892 24.4777 95.0212 24.935C94.8532 25.3923 94.6129 25.782 94.3002 26.104C93.9922 26.426 93.6189 26.6733 93.1802 26.846C92.7462 27.0187 92.2632 27.105 91.7312 27.105C91.1946 27.105 90.7069 27.0187 90.2682 26.846C89.8296 26.6733 89.4539 26.426 89.1412 26.104C88.8332 25.782 88.5929 25.3923 88.4202 24.935C88.2522 24.4777 88.1682 23.9643 88.1682 23.395C88.1682 22.8303 88.2522 22.3193 88.4202 21.862C88.5929 21.4047 88.8332 21.0173 89.1412 20.7C89.4539 20.3827 89.8296 20.1377 90.2682 19.965C90.7069 19.7923 91.1946 19.706 91.7312 19.706ZM91.7312 25.775C92.3286 25.775 92.7696 25.5743 93.0542 25.173C93.3436 24.7717 93.4882 24.1837 93.4882 23.409C93.4882 22.6343 93.3436 22.044 93.0542 21.638C92.7696 21.232 92.3286 21.029 91.7312 21.029C91.1246 21.029 90.6742 21.2343 90.3802 21.645C90.0909 22.051 89.9462 22.639 89.9462 23.409C89.9462 24.179 90.0909 24.767 90.3802 25.173C90.6742 25.5743 91.1246 25.775 91.7312 25.775ZM103.28 19.818V27H102.223C101.995 27 101.85 26.895 101.789 26.685L101.67 26.111C101.376 26.4097 101.052 26.6523 100.697 26.839C100.343 27.021 99.9249 27.112 99.4443 27.112C99.0523 27.112 98.7046 27.0467 98.4013 26.916C98.1026 26.7807 97.8506 26.5917 97.6453 26.349C97.4399 26.1063 97.2836 25.8193 97.1763 25.488C97.0736 25.152 97.0223 24.7833 97.0223 24.382V19.818H98.7513V24.382C98.7513 24.8207 98.8516 25.1613 99.0523 25.404C99.2576 25.642 99.5633 25.761 99.9693 25.761C100.268 25.761 100.548 25.6957 100.809 25.565C101.071 25.4297 101.318 25.2453 101.551 25.012V19.818H103.28ZM107.889 27.112C107.263 27.112 106.783 26.937 106.447 26.587C106.115 26.2323 105.95 25.7447 105.95 25.124V21.113H105.215C105.121 21.113 105.042 21.0827 104.977 21.022C104.911 20.9613 104.879 20.8703 104.879 20.749V20.063L106.034 19.874L106.398 17.914C106.421 17.8207 106.465 17.7483 106.531 17.697C106.596 17.6457 106.68 17.62 106.783 17.62H107.679V19.881H109.597V21.113H107.679V25.005C107.679 25.229 107.732 25.404 107.84 25.53C107.952 25.656 108.103 25.719 108.295 25.719C108.402 25.719 108.491 25.7073 108.561 25.684C108.635 25.656 108.698 25.628 108.75 25.6C108.806 25.572 108.855 25.5463 108.897 25.523C108.939 25.495 108.981 25.481 109.023 25.481C109.074 25.481 109.116 25.495 109.149 25.523C109.181 25.5463 109.216 25.5837 109.254 25.635L109.772 26.475C109.52 26.685 109.23 26.8437 108.904 26.951C108.577 27.0583 108.239 27.112 107.889 27.112ZM121.296 19.818V27H120.239C120.01 27 119.866 26.895 119.805 26.685L119.686 26.111C119.392 26.4097 119.068 26.6523 118.713 26.839C118.358 27.021 117.941 27.112 117.46 27.112C117.068 27.112 116.72 27.0467 116.417 26.916C116.118 26.7807 115.866 26.5917 115.661 26.349C115.456 26.1063 115.299 25.8193 115.192 25.488C115.089 25.152 115.038 24.7833 115.038 24.382V19.818H116.767V24.382C116.767 24.8207 116.867 25.1613 117.068 25.404C117.273 25.642 117.579 25.761 117.985 25.761C118.284 25.761 118.564 25.6957 118.825 25.565C119.086 25.4297 119.334 25.2453 119.567 25.012V19.818H121.296ZM127.892 21.218C127.846 21.2927 127.797 21.3463 127.745 21.379C127.694 21.407 127.629 21.421 127.549 21.421C127.465 21.421 127.374 21.3977 127.276 21.351C127.183 21.3043 127.073 21.253 126.947 21.197C126.821 21.1363 126.677 21.0827 126.513 21.036C126.355 20.9893 126.166 20.966 125.946 20.966C125.606 20.966 125.337 21.0383 125.141 21.183C124.95 21.3277 124.854 21.5167 124.854 21.75C124.854 21.904 124.903 22.0347 125.001 22.142C125.104 22.2447 125.237 22.3357 125.4 22.415C125.568 22.4943 125.757 22.5667 125.967 22.632C126.177 22.6927 126.39 22.7603 126.604 22.835C126.824 22.9097 127.038 22.996 127.248 23.094C127.458 23.1873 127.645 23.3087 127.808 23.458C127.976 23.6027 128.109 23.7777 128.207 23.983C128.31 24.1883 128.361 24.4357 128.361 24.725C128.361 25.0703 128.298 25.39 128.172 25.684C128.051 25.9733 127.869 26.2253 127.626 26.44C127.384 26.65 127.083 26.8157 126.723 26.937C126.369 27.0537 125.958 27.112 125.491 27.112C125.244 27.112 125.001 27.0887 124.763 27.042C124.53 27 124.304 26.9393 124.084 26.86C123.87 26.7807 123.669 26.6873 123.482 26.58C123.3 26.4727 123.139 26.356 122.999 26.23L123.398 25.572C123.45 25.4927 123.51 25.432 123.58 25.39C123.65 25.348 123.739 25.327 123.846 25.327C123.954 25.327 124.054 25.3573 124.147 25.418C124.245 25.4787 124.357 25.544 124.483 25.614C124.609 25.684 124.756 25.7493 124.924 25.81C125.097 25.8707 125.314 25.901 125.575 25.901C125.781 25.901 125.956 25.8777 126.1 25.831C126.25 25.7797 126.371 25.7143 126.464 25.635C126.562 25.5557 126.632 25.4647 126.674 25.362C126.721 25.2547 126.744 25.145 126.744 25.033C126.744 24.865 126.693 24.7273 126.59 24.62C126.492 24.5127 126.359 24.4193 126.191 24.34C126.028 24.2607 125.839 24.1907 125.624 24.13C125.414 24.0647 125.197 23.9947 124.973 23.92C124.754 23.8453 124.537 23.759 124.322 23.661C124.112 23.5583 123.923 23.43 123.755 23.276C123.592 23.122 123.459 22.933 123.356 22.709C123.258 22.485 123.209 22.2143 123.209 21.897C123.209 21.603 123.268 21.323 123.384 21.057C123.501 20.791 123.671 20.56 123.895 20.364C124.124 20.1633 124.406 20.0047 124.742 19.888C125.083 19.7667 125.475 19.706 125.918 19.706C126.413 19.706 126.863 19.7877 127.269 19.951C127.675 20.1143 128.014 20.329 128.284 20.595L127.892 21.218Z" fill="white"/>
<defs>
<linearGradient id="paint0_linear_2234_9565" x1="-5.99772e-06" y1="44" x2="37.9196" y2="-49.7716" gradientUnits="userSpaceOnUse">
<stop stop-color="#FF3F3A"/>
<stop offset="1" stop-color="#F75E05"/>
</linearGradient>
</defs>
</svg>
